<svg width="15" height="14" viewBox="0 0 15 14" fill="none" xmlns="http://www.w3.org/2000/svg">
<path d="M5.375 11.1964C5.60119 11.4226 5.71429 11.6905 5.71429 12C5.71429 12.3095 5.60119 12.5774 5.375 12.8036C5.14881 13.0298 4.88095 13.1429 4.57143 13.1429C4.2619 13.1429 3.99405 13.0298 3.76786 12.8036C3.54167 12.5774 3.42857 12.3095 3.42857 12C3.42857 11.6905 3.54167 11.4226 3.76786 11.1964C3.99405 10.9702 4.2619 10.8571 4.57143 10.8571C4.88095 10.8571 5.14881 10.9702 5.375 11.1964ZM13.375 11.1964C13.6012 11.4226 13.7143 11.6905 13.7143 12C13.7143 12.3095 13.6012 12.5774 13.375 12.8036C13.1488 13.0298 12.881 13.1429 12.5714 13.1429C12.2619 13.1429 11.994 13.0298 11.7679 12.8036C11.5417 12.5774 11.4286 12.3095 11.4286 12C11.4286 11.6905 11.5417 11.4226 11.7679 11.1964C11.994 10.9702 12.2619 10.8571 12.5714 10.8571C12.881 10.8571 13.1488 10.9702 13.375 11.1964ZM14.8571 2.28571V6.85714C14.8571 7 14.8065 7.12798 14.7054 7.24107C14.6101 7.34821 14.4911 7.41071 14.3482 7.42857L5.02679 8.51786C5.10417 8.875 5.14286 9.08333 5.14286 9.14286C5.14286 9.2381 5.07143 9.42857 4.92857 9.71429H13.1429C13.2976 9.71429 13.4315 9.77083 13.5446 9.88393C13.6577 9.99702 13.7143 10.131 13.7143 10.2857C13.7143 10.4405 13.6577 10.5744 13.5446 10.6875C13.4315 10.8006 13.2976 10.8571 13.1429 10.8571H4C3.84524 10.8571 3.71131 10.8006 3.59821 10.6875C3.48512 10.5744 3.42857 10.4405 3.42857 10.2857C3.42857 10.2202 3.45238 10.128 3.5 10.0089C3.54762 9.88393 3.59524 9.77679 3.64286 9.6875C3.69048 9.59226 3.75298 9.47321 3.83036 9.33036C3.91369 9.18155 3.96131 9.09226 3.97321 9.0625L2.39286 1.71428H0.571429C0.416667 1.71428 0.282738 1.65774 0.169643 1.54464C0.0565476 1.43155 0 1.29762 0 1.14286C0 0.988095 0.0565476 0.854166 0.169643 0.741071C0.282738 0.627976 0.416667 0.571428 0.571429 0.571428H2.85714C2.95238 0.571428 3.03571 0.592262 3.10714 0.633928C3.18452 0.669642 3.24405 0.714285 3.28571 0.767857C3.32738 0.821428 3.36607 0.895833 3.40179 0.991071C3.4375 1.08036 3.46131 1.15774 3.47321 1.22321C3.48512 1.28274 3.5 1.36905 3.51786 1.48214C3.54167 1.59524 3.55655 1.67262 3.5625 1.71428H14.2857C14.4405 1.71428 14.5744 1.77083 14.6875 1.88393C14.8006 1.99702 14.8571 2.13095 14.8571 2.28571Z" fill="white"/>
</svg>
