<svg width="14" height="14" viewBox="0 0 14 14" fill="none" xmlns="http://www.w3.org/2000/svg">
<path d="M13.3571 11.192C13.3571 11.3627 13.3255 11.5872 13.2623 11.8655C13.199 12.1375 13.1326 12.3525 13.0631 12.5106C12.9302 12.8268 12.5445 13.162 11.9057 13.5162C11.3112 13.8387 10.723 14 10.1412 14C9.97042 14 9.80283 13.9905 9.63839 13.9715C9.47396 13.9462 9.29055 13.9051 9.08817 13.8482C8.89211 13.7913 8.74349 13.747 8.6423 13.7154C8.54743 13.6775 8.37351 13.611 8.12054 13.5162C7.86756 13.4213 7.71261 13.3644 7.65569 13.3454C7.0359 13.1241 6.48252 12.8616 5.99554 12.558C5.19234 12.0584 4.35752 11.3754 3.49107 10.5089C2.62463 9.64248 1.94159 8.80766 1.44196 8.00446C1.13839 7.51748 0.87593 6.9641 0.654576 6.34431C0.635603 6.28739 0.578683 6.13244 0.483817 5.87946C0.388951 5.62649 0.322545 5.45257 0.284598 5.3577C0.252976 5.25651 0.208705 5.10789 0.151786 4.91183C0.0948661 4.70945 0.0537574 4.52604 0.0284598 4.36161C0.00948661 4.19717 0 4.02958 0 3.85882C0 3.27697 0.161272 2.6888 0.483817 2.09431C0.837984 1.45554 1.17318 1.06975 1.4894 0.936941C1.64751 0.867373 1.86254 0.800967 2.13449 0.737723C2.41276 0.674478 2.63728 0.642856 2.80804 0.642856C2.89658 0.642856 2.96298 0.652343 3.00725 0.671316C3.12109 0.709263 3.28869 0.94959 3.51004 1.3923C3.57961 1.51246 3.67448 1.68322 3.79464 1.90458C3.91481 2.12593 4.02548 2.32831 4.12667 2.51172C4.22786 2.6888 4.32589 2.8564 4.42076 3.01451C4.43973 3.03981 4.49349 3.11886 4.58203 3.25167C4.6769 3.38449 4.74647 3.49833 4.79074 3.59319C4.83501 3.68173 4.85714 3.77027 4.85714 3.85882C4.85714 3.9853 4.76544 4.14341 4.58203 4.33315C4.40495 4.52288 4.20889 4.6968 3.99386 4.85491C3.78516 5.01302 3.5891 5.18062 3.40569 5.3577C3.22861 5.53478 3.14007 5.68025 3.14007 5.79408C3.14007 5.851 3.15588 5.92373 3.1875 6.01228C3.21912 6.09449 3.24442 6.15774 3.26339 6.20201C3.28869 6.24628 3.33296 6.32217 3.39621 6.42969C3.46577 6.5372 3.50372 6.59728 3.51004 6.60993C3.9907 7.47638 4.54092 8.21949 5.16071 8.83929C5.78051 9.45908 6.52362 10.0093 7.39007 10.49C7.40272 10.4963 7.4628 10.5342 7.57031 10.6038C7.67783 10.667 7.75372 10.7113 7.79799 10.7366C7.84226 10.7556 7.90551 10.7809 7.98772 10.8125C8.07627 10.8441 8.149 10.8599 8.20592 10.8599C8.31975 10.8599 8.46522 10.7714 8.6423 10.5943C8.81938 10.4109 8.98698 10.2148 9.14509 10.0061C9.3032 9.79111 9.47712 9.59505 9.66685 9.41797C9.85659 9.23456 10.0147 9.14286 10.1412 9.14286C10.2297 9.14286 10.3183 9.16499 10.4068 9.20926C10.5017 9.25353 10.6155 9.3231 10.7483 9.41797C10.8811 9.50651 10.9602 9.56027 10.9855 9.57924C11.1436 9.67411 11.3112 9.77214 11.4883 9.87333C11.6717 9.97452 11.8741 10.0852 12.0954 10.2054C12.3168 10.3255 12.4875 10.4204 12.6077 10.49C13.0504 10.7113 13.2907 10.8789 13.3287 10.9927C13.3477 11.037 13.3571 11.1034 13.3571 11.192Z" fill="white"/>
</svg>
