<svg width="379" height="394" viewBox="0 0 379 394" fill="none" xmlns="http://www.w3.org/2000/svg">
<path fill-rule="evenodd" clip-rule="evenodd" d="M161.169 0L163.244 0.41714C180.303 35.9007 173.126 78.0206 145.923 105.834L165.783 140.233L180.521 85.2328L180.398 84.7762L180.662 84.7056L181.544 81.4155L187.242 82.9424L196.754 80.3938L212.468 139.041L232.077 105.078C205.72 78.9247 197.187 39.1477 211.39 4.07066L213.434 3.52286C236.113 21.2147 248.775 47.8251 249.265 75.308L276.328 28.4326L290.992 36.8988L262.241 86.697C285.982 69.6805 316.998 64.4016 345.907 74.0235L346.584 76.0292C324.383 108.544 284.318 123.389 246.63 113.737L226.769 148.136L281.77 133.399L282.104 133.065L282.297 133.258L285.587 132.376L287.114 138.075L294.077 145.038L251.144 187.971H290.361C299.832 152.068 330.014 124.79 367.492 119.551L368.989 121.048C365.007 149.535 348.293 173.806 324.737 187.971H378.864V204.903H321.362C347.969 216.955 368.049 241.176 374.17 271.024L372.772 272.612C333.513 269.644 300.624 242.368 290.139 204.903H250.418L290.681 245.166L291.137 245.289L291.067 245.552L293.475 247.961L289.304 252.132L286.755 261.644L228.108 245.93L247.716 279.893C283.544 270.143 322.258 282.642 345.535 312.48L344.987 314.525C318.326 325.32 288.95 322.98 264.904 309.663L291.968 356.538L277.304 365.004L248.553 315.206C251.419 344.274 240.483 373.775 217.695 394L215.62 393.583C198.561 358.099 205.738 315.979 232.941 288.166L213.081 253.767L198.343 308.768L198.465 309.224L198.202 309.294L197.32 312.584L191.622 311.057L182.11 313.606L166.395 254.959L146.787 288.922C173.144 315.075 181.676 354.852 167.474 389.929L165.43 390.477C142.751 372.785 130.088 346.175 129.599 318.692L102.535 365.567L87.8714 357.101L116.622 307.303C92.8816 324.319 61.8657 329.598 32.9563 319.976L32.28 317.971C54.4803 285.456 94.5457 270.611 132.234 280.263L152.094 245.864L97.094 260.601L96.7599 260.935L96.5671 260.742L93.277 261.624L91.75 255.925L84.7869 248.962L127.72 206.029H88.5024C79.0318 241.932 48.8502 269.21 11.3714 274.449L9.87475 272.952C13.8568 244.465 30.571 220.194 54.1272 206.029H0V189.097H57.5019C30.8949 177.045 10.8153 152.824 4.69338 122.976L6.09216 121.388C45.3511 124.356 78.2395 151.632 88.7251 189.097H128.446L88.1827 148.833L87.7267 148.711L87.7972 148.448L85.3885 146.039L89.5605 141.867L92.1091 132.356L150.756 148.07L131.148 114.107C95.3196 123.857 56.6055 111.358 33.329 81.5195L33.8768 79.475C60.5381 68.6802 89.9145 71.0196 113.96 84.3373L86.8964 37.4618L101.56 28.9955L130.311 78.7939C127.445 49.7255 138.381 20.2254 161.169 0ZM162.729 168.808L120.894 157.598L152.392 189.097H174.443L162.729 168.808ZM188.782 180.067L177.757 160.971L189.286 117.944L200.495 159.779L188.782 180.067ZM226.472 204.903L257.97 236.402L216.135 225.192L204.421 204.903H226.472ZM189.578 276.057L201.107 233.029L190.082 213.932L178.368 234.221L189.578 276.057ZM203.771 187.971L214.796 168.874L257.824 157.345L227.198 187.971H203.771ZM121.04 236.655L164.067 225.126L175.093 206.029H151.666L121.04 236.655Z" fill="#F2F4FA"/>
</svg>
